<svg width="256" height="256" viewBox="0 0 256 256" fill="none" xmlns="http://www.w3.org/2000/svg">
  <defs>
    <linearGradient id="bg" x1="32" y1="24" x2="224" y2="228" gradientUnits="userSpaceOnUse">
      <stop stop-color="#F9A8D4"/>
      <stop offset="1" stop-color="#8B5CF6"/>
    </linearGradient>
    <linearGradient id="shirt" x1="84" y1="150" x2="172" y2="236" gradientUnits="userSpaceOnUse">
      <stop stop-color="#A78BFA"/>
      <stop offset="1" stop-color="#6D28D9"/>
    </linearGradient>
    <linearGradient id="hair" x1="84" y1="74" x2="172" y2="134" gradientUnits="userSpaceOnUse">
      <stop stop-color="#1F2937"/>
      <stop offset="1" stop-color="#111827"/>
    </linearGradient>
  </defs>
  <rect width="256" height="256" rx="128" fill="url(#bg)"/>
  <circle cx="128" cy="128" r="66" fill="#F0C29D"/>
  <path d="M72 118c5-29 27-54 56-54 25 0 47 13 56 38-12 11-28 18-56 18-19 0-35-4-56-2z" fill="url(#hair)"/>
  <path d="M86 94c11-14 27-22 42-22 18 0 34 7 47 20 2 2 4 5 5 8-16 9-33 13-48 13-16 0-31-4-44-10 0-3 0-6 2-9z" fill="#111827"/>
  <circle cx="105" cy="130" r="5" fill="#111827"/>
  <circle cx="151" cy="130" r="5" fill="#111827"/>
  <path d="M112 148c5 4 8 6 16 6s12-2 16-6" stroke="#B45309" stroke-width="4.5" stroke-linecap="round"/>
  <path d="M94 164c8 8 19 12 34 12s26-4 34-12" stroke="#A16207" stroke-width="4.5" stroke-linecap="round" opacity=".95"/>
  <circle cx="88" cy="140" r="3" fill="#F9A8D4"/>
  <circle cx="168" cy="140" r="3" fill="#F9A8D4"/>
  <path d="M82 220c9-28 31-42 46-42 17 0 40 13 46 42" fill="url(#shirt)"/>
  <path d="M100 214h56v40h-56z" fill="#FFFFFF" opacity=".12"/>
</svg>
